<?xml version="1.0" encoding="utf-8"?>
<!-- Uploaded to: SVG Repo, www.svgrepo.com, Generator: SVG Repo Mixer Tools -->
<svg width="800px" height="800px" viewBox="-60.89 0 398.034 398.034" xmlns="http://www.w3.org/2000/svg"><defs><style>.a{fill:#7a7473;}.b{fill:#ffffff;}.c{fill:#211715;}.d{fill:#bdbdbd;}.e{fill:#79c6e0;}</style></defs><path class="a" d="M157.145,151.461c18.371.852,36.2-5.477,46.507-17.609,7.748-9.118,2.877-9.778-1.7-18.69-2.805-5.465-3.733-13.822-4.071-20.062-.758-14.007-.776-27.733-3.4-41.655A59.451,59.451,0,0,0,176.021,20.4l-8.254-6.425A71.284,71.284,0,0,0,127.634,2.476C96.581,1.969,66.779,21.62,60.784,53.445c-2.622,13.922-2.641,27.648-3.4,41.655-.338,6.24-1.265,14.6-4.071,20.062-4.573,8.912-9.444,9.572-1.7,18.69,8.611,10.134,19.306,19.5,37.751,18.609l15.481-2.814Z"/><path class="b" d="M113.582,48.979c-5.517,7.846-29.287,32.708-37.511,36,0,0-.358,1.635-.719,3.275l-.343-.309a7.925,7.925,0,0,0-6.343-1.856,7.485,7.485,0,0,0-5.382,3.578,10.583,10.583,0,0,0-1.108,4.257,31.715,31.715,0,0,0,3.234,16.811,20.158,20.158,0,0,0,5.212,6.841,13.358,13.358,0,0,0,6.215,2.8l2.028.312A53.9,53.9,0,0,0,89.141,140.75a46.027,46.027,0,0,0,15.952,12.715,52.124,52.124,0,0,1-1.123,9.787c-.638,3.64-.438,6.894-5.5,8.722-.335.121-2.691.9-3.666,1.228,0,0,2.34,29.778,32.859,29.778s36.361-28.453,36.361-28.453c-.51-.21-6.21-2.43-6.54-2.55-5.06-1.83-4.86-5.08-5.5-8.72a53.227,53.227,0,0,1-1.12-9.527c13.488-5.486,24.391-23.706,26.275-28.82.281-.854.854-2.462,1.365-4.372l1.063-.163a13.358,13.358,0,0,0,6.215-2.8A20.158,20.158,0,0,0,191,110.733a31.715,31.715,0,0,0,3.233-16.811,10.566,10.566,0,0,0-1.108-4.257,7.485,7.485,0,0,0-5.381-3.578,8.059,8.059,0,0,0-4.974.89c0-1.276,0-2.363,0-2.363C175.2,83.725,157,75.8,146.7,70.906c-11.222-5.333-27.111-17.889-32.3-22.133"/><path class="c" d="M183.093,89.64a5.459,5.459,0,0,1,7.571.633c1.162,1.469,1.215,3.631,1.266,5.417a28.139,28.139,0,0,1-.391,5.754c-1.233,6.92-4.9,15.293-12.609,16.617a2.419,2.419,0,0,0-1.676,2.952,2.455,2.455,0,0,0,2.952,1.676c8-1.375,12.773-8.876,15.015-16.085a33.548,33.548,0,0,0,1.471-11.8c-.23-3.993-1.383-7.786-5.068-9.867A10.431,10.431,0,0,0,179.7,86.246a2.42,2.42,0,0,0,0,3.394,2.45,2.45,0,0,0,3.394,0Z"/><path class="c" d="M177.086,114.473a27.042,27.042,0,0,1-1.321,6.915c-.232.769-.485,1.53-.74,2.291q-.129.38-.262.758c-.147.418-.171.4-.064.167a57.57,57.57,0,0,1-3.509,6.412,63.17,63.17,0,0,1-14.074,16.234,26.814,26.814,0,0,1-10.447,5.288c-3.01.692-1.736,5.321,1.276,4.629,7.889-1.814,14.5-7.478,19.717-13.42a68.48,68.48,0,0,0,11.027-16.375,34.738,34.738,0,0,0,3.2-12.9c.1-3.089-4.7-3.085-4.8,0Z"/><path class="c" d="M76.706,86.246a10.4,10.4,0,0,0-10.33-2.032c-4.051,1.524-6.034,4.888-6.529,9.052a32.515,32.515,0,0,0,5.712,22.357,17.024,17.024,0,0,0,10.64,7.066,2.469,2.469,0,0,0,2.952-1.676,2.42,2.42,0,0,0-1.676-2.952c-7.706-1.324-11.377-9.7-12.61-16.617a28.281,28.281,0,0,1-.391-5.754c.05-1.739.1-3.8,1.166-5.269a5.431,5.431,0,0,1,7.672-.781,2.463,2.463,0,0,0,3.394,0,2.421,2.421,0,0,0,0-3.394Z"/><path class="c" d="M74.841,113.716c2.888,16.659,11.925,32.983,27.373,41.007a37.093,37.093,0,0,0,13.376,4,2.415,2.415,0,0,0,2.4-2.4,2.454,2.454,0,0,0-2.4-2.4C99.69,152.27,87.306,138,82.319,123.677A71.046,71.046,0,0,1,79.47,112.44a2.42,2.42,0,0,0-2.952-1.676,2.455,2.455,0,0,0-1.677,2.952Z"/><path class="c" d="M174.324,22.092a57.918,57.918,0,0,1,16.843,27.575A110.026,110.026,0,0,1,194.1,68.929c.561,6.763.8,13.546,1.1,20.323a121.311,121.311,0,0,0,1.664,17.81,38.094,38.094,0,0,0,2.487,8.192,42.624,42.624,0,0,0,3.733,6.394c.519.776,1.05,1.548,1.509,2.361a9.34,9.34,0,0,1,.522,1.027c-.157-.381.17.643.208.842-.1-.528,0,.433-.007.618,0,.095-.07.45,0,.024a5.922,5.922,0,0,1-.171.7,10.55,10.55,0,0,1-1.437,2.677,38.994,38.994,0,0,1-11.157,10.436c-10.455,6.7-23.112,9.268-35.411,8.733-3.088-.134-3.082,4.667,0,4.8a67.012,67.012,0,0,0,34.281-7.31,48.342,48.342,0,0,0,12.973-9.923c3.06-3.35,6.944-7.949,5.34-12.836a22.119,22.119,0,0,0-2.931-5.2,32.407,32.407,0,0,1-3.685-6.728c-1.948-5.34-2.527-11.13-2.839-16.769-.788-14.257-.807-28.635-3.563-42.7a62.458,62.458,0,0,0-19-33.7c-2.266-2.093-5.669,1.293-3.394,3.394Z"/><path class="c" d="M89.368,150.061a38.76,38.76,0,0,1-23.036-5.87,49.178,49.178,0,0,1-8.1-6.662,45.962,45.962,0,0,1-7.339-8.677,7.066,7.066,0,0,1-.84-1.872,3.647,3.647,0,0,1-.094-1.216c-.038.243.14-.484.169-.595.129-.495-.071.036.168-.438a19.978,19.978,0,0,1,1.039-1.8c2.182-3.393,4.39-6.638,5.691-10.5,3.05-9.056,2.865-19.084,3.274-28.518.457-10.547.89-21.26,3.161-31.6a57.581,57.581,0,0,1,9.289-21c8.644-12.184,21.994-20.553,36.357-24.25a77.564,77.564,0,0,1,23.8-2.075,68.771,68.771,0,0,1,27.581,7.509,69.81,69.81,0,0,1,6.068,3.551c2.594,1.693,5-2.461,2.423-4.145C152.743,1.3,132.535-2.076,113.539,1.205,97.837,3.917,82.822,11.871,72.4,24.021A62.425,62.425,0,0,0,60.424,45.193c-3.246,9.894-3.973,20.648-4.552,30.98-.317,5.656-.5,11.317-.786,16.975a84.374,84.374,0,0,1-1.556,13.829A31.868,31.868,0,0,1,51.7,113a37.3,37.3,0,0,1-3.24,5.6c-1.675,2.514-3.611,5.145-3.264,8.337.451,4.145,3.734,7.548,6.377,10.519A65.9,65.9,0,0,0,59.6,145.21a43.155,43.155,0,0,0,22.761,9.48,48.029,48.029,0,0,0,7,.171c3.076-.135,3.093-4.936,0-4.8Z"/><path class="c" d="M112.707,50.47A235.752,235.752,0,0,0,137.52,68.544a118.589,118.589,0,0,0,13.69,7.087c5.361,2.427,10.774,4.753,16.266,6.868,4.925,1.9,10.015,3.862,15.284,4.515a2.414,2.414,0,0,0,2.4-2.4,2.459,2.459,0,0,0-2.4-2.4c.607.075-.6-.1-.79-.14-.462-.088-.921-.19-1.379-.3-1.054-.251-2.1-.544-3.135-.857-2.378-.719-4.723-1.549-7.05-2.42-5.137-1.923-10.191-4.064-15.2-6.3a128.7,128.7,0,0,1-13.733-6.86c-4.836-2.9-9.475-6.124-14.017-9.461q-5.793-4.256-11.358-8.8a2.47,2.47,0,0,0-3.394,0,2.419,2.419,0,0,0,0,3.394Z"/><path class="c" d="M111.51,47.768c-.3.423-.61.839-.924,1.251.384-.5-.141.179-.234.3q-.334.421-.675.84c-.962,1.183-1.953,2.343-2.956,3.492-2.487,2.846-5.056,5.621-7.672,8.35A196.545,196.545,0,0,1,81.985,78.154a45.233,45.233,0,0,1-3.691,2.8c-.558.381-1.125.75-1.709,1.089-.276.16-.555.315-.839.459-.195.1-1.075.476-.313.165a2.476,2.476,0,0,0-1.676,2.952,2.415,2.415,0,0,0,2.952,1.676,30.742,30.742,0,0,0,7.137-4.516c2.948-2.3,5.741-4.8,8.472-7.354q8.968-8.384,17.122-17.612a91.036,91.036,0,0,0,6.214-7.619,2.42,2.42,0,0,0-.861-3.283,2.449,2.449,0,0,0-3.283.861Z"/><path class="c" d="M102.69,153.638a44.943,44.943,0,0,1-.672,6.9c-.331,1.934-.523,3.951-1.022,5.851-.044.167-.09.333-.143.5s-.216.582-.046.193a5.837,5.837,0,0,1-.613,1.079c.245-.34-.094.088-.183.179a4.943,4.943,0,0,1-.513.469c.251-.195-.143.083-.23.136-.235.144-.474.281-.72.406a33.428,33.428,0,0,1-4.381,1.537,2.457,2.457,0,0,0-1.676,2.953,2.425,2.425,0,0,0,2.952,1.676,38.469,38.469,0,0,0,5.656-2.086,8.917,8.917,0,0,0,4.351-5.169,42.086,42.086,0,0,0,1.141-6.12,56.216,56.216,0,0,0,.9-8.5c.061-3.09-4.739-3.09-4.8,0Z"/><path class="c" d="M148.465,153.727a77.4,77.4,0,0,0,1.287,10.651c.416,2.577.765,5.087,2.58,7.119,1.608,1.8,3.885,2.546,6.065,3.392,1.664.647,3.336,1.279,4.99,1.952a2.416,2.416,0,0,0,2.953-1.676,2.46,2.46,0,0,0-1.677-2.952c-1.47-.6-2.956-1.161-4.436-1.737-.656-.255-1.311-.512-1.969-.763a6.894,6.894,0,0,1-2.373-1.436c-.082-.084-.16-.172-.235-.262q.208.278-.03-.061a7.5,7.5,0,0,1-.377-.672c-.073-.155-.065-.13.024.073-.053-.135-.1-.273-.147-.411-.08-.246-.147-.494-.208-.745-.258-1.058-.376-2.145-.551-3.218a65.227,65.227,0,0,1-1.1-9.254c-.068-3.084-4.868-3.095-4.8,0Z"/><path class="b" d="M96.913,176.954c5.326,17.568,19.012,62.817,22.125,72.816,2.378,7.634,4.595,15.28,7.288,22.837,7.837-18.815,14.934-37.461,24.7-64.852,4.908-13.767,8.753-27.171,10.56-34.408a38.967,38.967,0,0,0-7.654-10.115,80.277,80.277,0,0,1-23.174,16.151c-.48.217-1.015.483-1.169.987H125.2c-.155-.5-.69-.77-1.17-.987a80.3,80.3,0,0,1-23.174-16.151,36.177,36.177,0,0,0-5.935,7.207l.094.262C95.343,171.777,96.007,173.965,96.913,176.954Z"/><path class="d" d="M242.606,235.741s-40.918-46.289-42.881-47.264c-8.695-4.316-27.2-12.66-35.974-17.32,0,0-.617-.328-1.469-.789a369.743,369.743,0,0,1-11.256,37.387c-4.99,14-9.283,25.709-13.335,36.328-3.877,10.162-7.533,19.323-11.365,28.523-2.693-7.556-4.91-15.2-7.287-22.836C115.4,238.07,97.275,178.1,95.014,170.7c0,0-.288-.941-.575-1.881l-4.983,2.36C79.039,176.115,61.892,184.686,53.2,189c-1.6.792-3.66,2.046-5.136,2.8a41.539,41.539,0,0,0-7.714,4.444c-4.467,4.227-6.584,5.848-10.318,15.369C24.308,226.2,14.1,256,9.108,270.292c-4.744,13.572-9.668,22.538-4.508,33s16.115,17.257,24.2,22.881c18.643,12.966,47.428,28.786,56.488,32.98l4.354,2.016H196.2c-3.183-23.68-7.2-53.365-6.442-58.451.526-3.557,1.063-7.152,1.6-10.762,6.406,10.679,20.312,26.939,34.111,24.916,14.925-2.189,17.583-21.321,18.378-33.27C244.941,267.222,245.773,252.629,242.606,235.741Z"/><path class="c" d="M240.292,236.379a148.368,148.368,0,0,1,1.975,32.717c-.315,8.355-.553,17.071-2.071,25.1-1.208,6.386-3.248,13.13-8.265,17.352a13.953,13.953,0,0,1-8.718,3.1,20.6,20.6,0,0,1-10.619-3.349c-7.922-4.765-14.214-12.439-18.981-20.251-1.606-2.633-5.759-.224-4.144,2.423,4.719,7.734,10.759,15,18.16,20.3,7.029,5.029,16.044,7.708,24.159,3.581,6.752-3.435,10.283-10.835,12.129-17.833,2.159-8.181,2.456-16.786,2.908-25.19.707-13.143.5-26.24-1.9-39.217a2.422,2.422,0,0,0-2.953-1.676,2.451,2.451,0,0,0-1.676,2.952Z"/><path class="c" d="M145.893,201.142c5.683-5.693,10.089-12.445,14.247-19.289,1.005-1.653,2-3.312,3-4.964.625-1.029,1.534-2.092,1.179-3.383a12.79,12.79,0,0,0-1.438-2.745,40.66,40.66,0,0,0-7.256-9.226,2.442,2.442,0,0,0-3.394,0,77.5,77.5,0,0,1-19.5,14.231c-1.564.806-3.827,1.4-4.9,2.874a4.1,4.1,0,0,0,.288,4.793c2.038,2.982,4.485,5.728,6.78,8.512,2.529,3.067,5.083,6.113,7.591,9.2a2.418,2.418,0,0,0,3.4,0,2.457,2.457,0,0,0,0-3.394c-2.553-3.139-5.153-6.238-7.725-9.359-1.462-1.775-2.923-3.551-4.352-5.351-.46-.579-1.913-2-1.827-2.668l-.328,1.211c-.111.227-.414.194.017.012.288-.121.569-.264.852-.4q.754-.35,1.5-.718,1.619-.8,3.2-1.674,3.351-1.858,6.513-4.03a82.031,82.031,0,0,0,11.891-9.846h-3.394a38.327,38.327,0,0,1,7.7,10.426v-2.423c-5.294,8.631-10.226,17.592-17.438,24.816C140.313,199.936,143.706,203.332,145.893,201.142Z"/><path class="c" d="M112.289,197.748c-7.212-7.224-12.144-16.185-17.438-24.816v2.423a38.347,38.347,0,0,1,7.7-10.426H99.158a82.139,82.139,0,0,0,11.891,9.846q3.072,2.1,6.325,3.925,1.578.881,3.2,1.687.745.37,1.5.724.446.209.893.413a2.446,2.446,0,0,1,.288.148q.346.2-.125-.091l-.327-1.211c.086.668-1.368,2.089-1.827,2.668-1.43,1.8-2.89,3.576-4.352,5.351-2.573,3.121-5.173,6.22-7.725,9.359a2.471,2.471,0,0,0,0,3.394,2.419,2.419,0,0,0,3.394,0c4.592-5.647,9.428-11.119,13.806-16.936a5.875,5.875,0,0,0,1.525-3.671c-.063-2.375-2.27-3.144-4.064-4.017a79.22,79.22,0,0,1-10.45-6.139,75.358,75.358,0,0,1-10.554-8.844,2.445,2.445,0,0,0-3.394,0,40.705,40.705,0,0,0-7.255,9.226,12.752,12.752,0,0,0-1.438,2.745c-.336,1.219.466,2.212,1.062,3.191,1.044,1.716,2.077,3.439,3.12,5.156,4.159,6.844,8.564,13.6,14.248,19.289C111.08,203.331,114.475,199.937,112.289,197.748Z"/><path class="c" d="M162.54,173.229c6.772,3.588,13.755,6.788,20.689,10.047,6.761,3.178,13.666,6.193,20.212,9.8a26.172,26.172,0,0,1,10.118,9.124c1.616,2.627,5.769.218,4.144-2.423a29.213,29.213,0,0,0-9.391-9.4,99.751,99.751,0,0,0-10.207-5.353c-7.328-3.535-14.725-6.926-22.064-10.437-3.718-1.78-7.436-3.57-11.079-5.5-2.728-1.445-5.156,2.7-2.422,4.145Z"/><path class="d" d="M127.575,269.6c7.352-17.82,14.206-35.914,23.451-61.845a364.87,364.87,0,0,0,11.322-37.693c7.721,4.006,18.024,12.954,22.183,18.667-4.378,5.075-10.411,12.239-11.486,13.756.27.183,5.535,3.509,5.763,4.9.154.943-.429,2.21-1.909,4.5-3.134,4.853-25.375,43.017-33.378,54.822Z"/><path class="c" d="M120.53,294.673a7.68,7.68,0,0,0-5.257-7.5c-3.532-1.148-7.85.015-9.771,3.32a8.794,8.794,0,0,0-.04,8.688,8.534,8.534,0,0,0,9.614,3.436c3.508-1.033,5.429-4.424,5.454-7.94a2.4,2.4,0,0,0-4.8,0c0,.2-.009.4-.026.6-.008.1-.032.211-.033.313,0-.732.07-.441.019-.211s-.092.435-.153.65c-.031.109-.065.218-.1.325-.074.217-.34.617.032-.038-.115.2-.2.42-.323.62-.061.1-.129.2-.193.3-.245.383.4-.445.085-.109-.165.18-.334.349-.511.517-.336.32.491-.318.092-.069-.146.09-.287.186-.439.268-.239.129-.45.08.087-.015a3.666,3.666,0,0,0-.4.141c-.14.043-.281.08-.424.112l-.148.031q-.388.067.176-.013s-.94.048-1.021.046c-.176,0-.351-.021-.527-.027-.273-.029-.226-.02.139.027-.1-.017-.211-.035-.315-.056-.3-.06-.582-.154-.873-.241-.491-.148.495.259.052.025-.12-.063-.242-.12-.359-.188s-.222-.141-.334-.209c-.408-.247.429.384.08.069-.213-.194-.41-.391-.605-.6-.309-.337.331.492.087.111-.063-.1-.13-.192-.19-.292a3.261,3.261,0,0,0-.316-.605c.287.271.185.507.079.16-.032-.1-.07-.207-.1-.311-.067-.234-.081-.494-.157-.722.194.578.056.537.044.286,0-.082-.012-.164-.015-.246a7.062,7.062,0,0,1,.013-.742c.009-.132.04-.274.037-.406.016.657-.05.34-.006.108a6.633,6.633,0,0,1,.231-.889c.04-.122.1-.241.134-.363-.191.647-.124.3-.027.109.114-.22.3-.425.4-.648-.216.487-.245.3-.057.091.085-.095.174-.187.266-.275s.211-.162.291-.255q-.474.358-.17.141.111-.075.225-.144c.117-.07.24-.129.359-.2.435-.247-.542.176-.055.018a8.408,8.408,0,0,1,.867-.249l.155-.03c.262-.044.21-.039-.154.013.072-.06.417-.038.511-.042.183-.008.364-.008.546,0,.119,0,.237.011.356.021q.411.042-.131-.028c.233-.084.834.171,1.066.246.271.088.38.283-.036-.037a4.73,4.73,0,0,0,.487.248c.114.066.221.141.333.211.349.218-.453-.4.01.021.091.084.179.171.263.262.424.458-.211-.348.008-.013.155.237.292.474.425.724.215.407-.2-.57-.055-.133.05.152.1.3.148.455.032.115.061.232.086.349.047.216.054.757.014-.047.014.279.047.555.05.836a2.4,2.4,0,0,0,4.8,0Z"/><path class="c" d="M160.056,169.321c-1.081,5.075-2.529,10.083-3.986,15.061q-3.393,11.587-7.442,22.969c-5.01,14.058-10.123,28.081-15.521,42q-3.821,9.849-7.847,19.616a2.414,2.414,0,0,0,1.677,2.952,2.46,2.46,0,0,0,2.952-1.676q7.419-17.989,14.156-36.249c5.624-15.136,11.258-30.3,15.9-45.773,1.743-5.816,3.479-11.676,4.744-17.619.642-3.013-3.984-4.3-4.628-1.276Z"/><path class="c" d="M88.245,169.108c-11,5.212-21.874,10.669-32.768,16.087-2.914,1.449-5.741,3.037-8.627,4.533-2.744,1.422-.319,5.566,2.422,4.145,2.579-1.336,5.093-2.776,7.7-4.07q3.762-1.87,7.525-3.741,8.658-4.3,17.338-8.55,4.409-2.149,8.838-4.259a2.422,2.422,0,0,0,.861-3.284,2.453,2.453,0,0,0-3.284-.861Z"/><path class="d" d="M111.262,266.708c-8-11.805-30.244-49.969-33.378-54.822-1.48-2.293-2.063-3.56-1.908-4.5.227-1.389,5.492-4.715,5.762-4.9-1.074-1.517-7.107-8.681-11.486-13.756,4.308-5.918,15.209-15.308,23.019-19.077l1.239-.6.5,1.648c2.261,7.4,20.381,67.369,24.024,79.069,2.743,8.806,5.272,17.628,8.564,26.31Z"/><path class="c" d="M92.7,171.339q4.247,13.9,8.433,27.82,5.969,19.7,11.957,39.394,1.88,6.162,3.779,12.318c1.8,5.788,3.516,11.6,5.422,17.354,1.838,5.551,4.135,10.96,5.631,16.619,3.777,14.293,1.666,28.931-.124,43.34-.876,7.054-1.79,13.825-2.867,20.9a152.129,152.129,0,0,1-2.717,15.051c-.079.306-.16.611-.254.912-.082.263-.44,1.15-.026.181a2.481,2.481,0,0,0,.861,3.284,2.417,2.417,0,0,0,3.283-.861c1.622-3.8,2.03-8.248,2.692-12.286,1.153-7.033,2.132-14.094,3.059-21.159.873-6.659,1.693-13.327,2.366-20.009a93.98,93.98,0,0,0,.138-21.317,74.821,74.821,0,0,0-3.926-16.122c-2.094-5.778-4.1-11.563-5.917-17.436q-2.774-8.955-5.512-17.923-5.841-19.113-11.618-38.247-4.785-15.791-9.571-31.582-.229-.756-.46-1.511c-.9-2.946-5.535-1.69-4.629,1.276Z"/><path class="c" d="M92.06,167.579a66.817,66.817,0,0,0-13.308,9.108,63.961,63.961,0,0,0-10.573,10.83,2.431,2.431,0,0,0,.376,2.909q3.46,4.013,6.866,8.074,1.44,1.719,2.862,3.452c.346.424.688.852,1.031,1.279.1.128.505.506.055.065a3,3,0,0,1,.3.4l.861-3.283a28.683,28.683,0,0,0-5.673,4.34c-2.5,2.786-.624,5.846,1.071,8.521,1.829,2.886,3.549,5.843,5.3,8.777,6.306,10.573,12.578,21.168,19,31.672,2.918,4.773,5.831,9.562,8.967,14.2,1.722,2.544,5.882.145,4.145-2.423-6.011-8.882-11.427-18.19-16.938-27.385-5.152-8.594-10.2-17.253-15.424-25.8-.3-.488-.6-.975-.9-1.458-.438-.691-.885-1.378-1.271-2.1a6.312,6.312,0,0,1-.39-.854,2.346,2.346,0,0,1-.082-.32c-.065-.295-.035.4.029-.023a4.036,4.036,0,0,1-.165.679c.11-.364-.191.194-.008-.01.224-.25.462-.485.71-.712a15.392,15.392,0,0,1,1.485-1.2c.839-.613,1.706-1.183,2.572-1.757a2.427,2.427,0,0,0,.861-3.283c-3.589-4.994-7.851-9.591-11.862-14.242l.375,2.908a61.919,61.919,0,0,1,9.822-9.858,61.573,61.573,0,0,1,12.336-8.358,2.423,2.423,0,0,0,.861-3.284,2.449,2.449,0,0,0-3.283-.861Z"/><path class="c" d="M160.3,171.724a61.608,61.608,0,0,1,12.337,8.358,61.953,61.953,0,0,1,9.821,9.858l.375-2.908c-4.01,4.651-8.273,9.248-11.861,14.242a2.434,2.434,0,0,0,.861,3.283c.719.477,1.44.949,2.143,1.449.976.694,1.652,1.527,2.689,2.292-.072-.053-.151-.317-.116-.133.059.3-.092-.372-.1-.435-.053-.29-.127,0,.008-.128.111-.107.026-.119-.02.077a7.026,7.026,0,0,1-.907,1.874c-.407.682-.847,1.345-1.266,2.021-1.964,3.174-3.857,6.394-5.768,9.6-6.141,10.306-12.259,20.626-18.524,30.857-2.773,4.528-5.544,9.068-8.52,13.466-1.736,2.565,2.421,4.97,4.144,2.423,6.269-9.264,11.906-18.981,17.65-28.573,5.083-8.489,10.023-17.075,15.244-25.481,1.427-2.3,3.87-5.433,2.165-8.191-1.413-2.287-4.207-3.812-6.4-5.262l.861,3.283a2.561,2.561,0,0,1,.3-.4c-.439.4-.055.072.055-.065.343-.427.685-.855,1.031-1.279q1.417-1.737,2.862-3.452,3.4-4.062,6.867-8.074a2.452,2.452,0,0,0,.375-2.909,63.917,63.917,0,0,0-10.572-10.83,66.8,66.8,0,0,0-13.309-9.108,2.461,2.461,0,0,0-3.283.861,2.421,2.421,0,0,0,.861,3.284Z"/><path class="c" d="M202.805,193.112c-.734,9.025-1.944,18.014-3.176,26.981-1.7,12.342-3.542,24.663-5.4,36.981-2.019,13.379-4.068,26.754-6.063,40.138a56.208,56.208,0,0,0-.894,6.7c-.036,1.369.045,2.743.132,4.108.276,4.349.753,8.686,1.243,13.015,1.54,13.613,3.413,27.188,5.238,40.765l2.315-3.038H58.24c-3.088,0-3.093,4.8,0,4.8H196.2c1.726,0,2.517-1.526,2.314-3.038-1.625-12.089-3.272-24.177-4.7-36.291-.552-4.686-1.084-9.379-1.459-14.083-.125-1.565-.236-3.133-.278-4.7-.015-.555-.023-1.111,0-1.666.008-.231.037-.464.04-.695,0-.065.015-.132.019-.2-.089,1.219.1-.644.134-.864,3.823-25.781,7.922-51.522,11.529-77.334,1.467-10.5,2.95-21.018,3.809-31.585a2.42,2.42,0,0,0-2.4-2.4,2.448,2.448,0,0,0-2.4,2.4Z"/><path class="c" d="M43.224,194.209c.743,9.148,1.976,18.258,3.219,27.349,1.663,12.165,3.48,24.309,5.312,36.45,2.018,13.379,4.067,26.752,6.063,40.134.236,1.587.462,3.175.707,4.76.2,1.272.012-.556.033.3.007.286.031.572.037.859.025,1.331-.051,2.664-.136,3.991-.272,4.253-.735,8.5-1.213,12.73-1.489,13.215-3.3,26.394-5.072,39.574a2.484,2.484,0,0,0,1.676,2.953,2.417,2.417,0,0,0,2.952-1.677c1.629-12.117,3.281-24.232,4.725-36.372.566-4.758,1.111-9.52,1.513-14.295a42.4,42.4,0,0,0,.278-8.158c-.742-6.638-1.966-13.257-2.965-19.862q-1.544-10.212-3.095-20.424c-1.885-12.45-3.764-24.9-5.513-37.371-1.441-10.28-2.88-20.587-3.721-30.937a2.461,2.461,0,0,0-2.4-2.4,2.418,2.418,0,0,0-2.4,2.4Z"/><path class="b" d="M152.013,249.451c-37.085,15.51-84.769,35.28-122.788,51.181,11.024,26.361,32.43,77.467,39.785,95.055l.009,0c48.1-20.017,82.33-34.689,122.672-51.56-7.947-19-31.811-75.873-39.674-94.677Z"/><path class="c" d="M151.375,247.137q-23.523,9.837-47.065,19.625Q79.548,277.07,54.787,287.381q-13.1,5.462-26.2,10.937c-1.075.449-2.226,1.637-1.676,2.952q7.923,18.948,15.857,37.892,8.379,20.018,16.76,40.035,3.066,7.321,6.129,14.644a15.882,15.882,0,0,0,1.468,3.3c.913,1.221,2.226.991,3.452.48l3.874-1.613q7.044-2.935,14.082-5.881,25.334-10.6,50.625-21.3,23.507-9.924,47.03-19.81,3.071-1.287,6.141-2.571c1.075-.45,2.227-1.637,1.676-2.953q-7.467-17.855-14.957-35.7-8.993-21.45-17.985-42.9-1.989-4.746-3.977-9.492-.825-1.972-1.651-3.944c-.65-1.554-1.122-3.648-2.784-4.317a2.414,2.414,0,0,0-2.952,1.676,2.458,2.458,0,0,0,1.676,2.952l0,0-1.677-1.676q7.313,17.484,14.647,34.958,8.913,21.26,17.825,42.519,3.6,8.6,7.2,17.2l1.676-2.952q-22.906,9.58-45.774,19.258-23.442,9.9-46.9,19.762-14.992,6.293-30,12.54h1.276l-.009,0,1.676,1.677q-6.787-16.231-13.585-32.457-8.856-21.154-17.71-42.308-4.247-10.144-8.49-20.29l-1.676,2.952q23.856-9.976,47.731-19.9,24.669-10.269,49.336-20.541,12.864-5.361,25.721-10.736a2.479,2.479,0,0,0,1.676-2.952A2.414,2.414,0,0,0,151.375,247.137Z"/><path class="b" d="M160.591,342.108c-1.3-2.214-3.943-2.747-6.133-3.831-5.059-2.506-10.306-4.553-15.361-7.181-2.5-1.3-4.7-3.863-7.455-4.552-2.6-.651-6.353.016-9,.28-4.755.475-12.108,1.924-16.724,1.309l-2.113-.433c-5.169,9.446-10.5,18.818-16.275,27.946a65.7,65.7,0,0,1,12.357,11.691c2.821,3.794,5.2,8.22,8.773,11.246,3.061,2.591,9.879,2.594,10.383,2.461,3.786-1,10.842-2.37,12.365-5.742,2.938,1.169,4.906,1.835,6.962.4,2.263-1.584,3.061-3.021,2.42-5.1a7.461,7.461,0,0,0,5.7,2.329c3.315.039,7.5-2.543,7.5-6.271,0-3.188-3.737-7.16-5.58-9.671-2.074-2.828-5.407-6.615-7.863-10,2.928,2.073,6.961,2.1,10.324,3.348,3.132,1.16,6.088,2.277,8.912-.414A6.5,6.5,0,0,0,160.591,342.108Z"/><path class="c" d="M105.919,330.533c5.045.615,10.23-.529,15.224-1.14a63.18,63.18,0,0,1,7.867-.726c2.61.012,4.316,1.305,6.339,2.817a40.94,40.94,0,0,0,7.642,4.157c2.849,1.307,5.73,2.545,8.563,3.888,1.289.612,2.567,1.219,3.883,1.773a8.5,8.5,0,0,1,2.581,1.4,4.14,4.14,0,0,1,.549,4.95c-1.631,2.44-4.454,1.308-6.675.5-2.959-1.077-6.3-1.212-9.122-2.631-2.753-1.383-5.187,2.757-2.423,4.145,3.021,1.518,6.338,1.769,9.5,2.837,2.909.981,5.828,2.134,8.87.913,6.261-2.514,6.915-11.444,1.4-15.12a23.438,23.438,0,0,0-3.737-1.762c-1.531-.671-3.018-1.448-4.538-2.143-3.284-1.5-6.607-2.917-9.846-4.516a25.3,25.3,0,0,1-3.916-2.306,28.193,28.193,0,0,0-3.5-2.419c-2.91-1.532-6.1-1.388-9.277-1.034-3.23.359-6.447.793-9.671,1.2a39.819,39.819,0,0,1-9.713.415,2.413,2.413,0,0,0-2.4,2.4,2.458,2.458,0,0,0,2.4,2.4Z"/><path class="c" d="M138.938,348.809c2.449,3.267,5.124,6.354,7.581,9.614,1.058,1.4,2.2,2.747,3.2,4.195a9.657,9.657,0,0,1,1.867,3.741c.28,2.569-3.044,4.17-5.095,4.163-3.131-.01-4.537-2.167-6.219-4.334a2.412,2.412,0,0,0-3.394,0,2.461,2.461,0,0,0,0,3.394c1.671,2.152,3.5,4.394,6.385,5.281a10.816,10.816,0,0,0,9.434-1.591c2.733-2.01,4.326-5.2,3.418-8.6-.864-3.232-3.272-5.842-5.265-8.422-2.557-3.312-5.261-6.515-7.77-9.863a2.476,2.476,0,0,0-3.283-.861,2.417,2.417,0,0,0-.861,3.284Z"/><path class="c" d="M138.432,371.093c.206.681.271.9-.024,1.367a4.55,4.55,0,0,1-1.71,1.451c-1.391.672-3.334-.4-4.651-.923a2.4,2.4,0,0,0-2.711,1.1,2.642,2.642,0,0,1-1.046,1.242,12.848,12.848,0,0,1-1.927,1.048,31.929,31.929,0,0,1-4.875,1.566c-.771.2-1.546.391-2.32.587-.17.043-.35.077-.516.132-.56.181.158-.182.285,0a3.315,3.315,0,0,0-.5.025,19.472,19.472,0,0,1-3.582-.258,10.906,10.906,0,0,1-4.426-1.5,20.055,20.055,0,0,1-4.005-4.389c-2.455-3.37-4.6-6.911-7.458-9.969A66.784,66.784,0,0,0,88.214,353.2a2.423,2.423,0,0,0-3.284.861,2.448,2.448,0,0,0,.861,3.283,61.041,61.041,0,0,1,9.9,8.746c2.954,3.176,5.053,6.962,7.825,10.5a18.475,18.475,0,0,0,4.852,4.7,15.668,15.668,0,0,0,5.508,1.805,25.535,25.535,0,0,0,4.56.381,18.293,18.293,0,0,0,4.02-.831c3.8-.981,9.118-2.273,11.023-6.142l-2.711,1.1c2.976,1.177,6.148,2.054,8.989.027,2.666-1.9,4.306-4.5,3.3-7.826-.89-2.95-5.525-1.693-4.629,1.276Z"/><path class="d" d="M41.705,284.1c6.013,3.139,57.827,36.311,64.105,39.924-6.458,11.9-13.1,23.726-20.521,35.124-9.06-4.194-37.845-20.014-56.488-32.98-8.086-5.624-19.042-12.422-24.2-22.881Z"/><path class="c" d="M40.493,286.174c2.759,1.448,5.391,3.171,8.041,4.805q7.284,4.494,14.521,9.065c10.618,6.674,21.208,13.392,31.832,20.057,3.22,2.02,6.418,4.1,9.712,6l-.861-3.284c-6.471,11.919-13.128,23.747-20.521,35.124l3.283-.861c-4.8-2.228-9.46-4.766-14.1-7.3q-10.346-5.648-20.465-11.7c-6.992-4.179-13.916-8.487-20.635-13.094-6.354-4.357-12.939-8.584-18.32-14.155-5.339-5.526-9.2-12.392-7.906-20.285a67.464,67.464,0,0,1,3.654-12.222q2.029-5.512,3.971-11.054c4.9-14.078,9.747-28.174,14.839-42.184q1.707-4.7,3.472-9.374a76.031,76.031,0,0,1,4.167-9.685,23.28,23.28,0,0,1,4.753-6.083c.463-.447.933-.888,1.4-1.33.245-.232.512-.456.743-.7.266-.285-.473.3.113-.095,1.163-.784,2.361-1.509,3.583-2.2.643-.364,1.291-.719,1.95-1.053.238-.12.479-.232.717-.35.581-.287-.3.088.261-.1,2.917-.971,1.667-5.608-1.276-4.629a31.387,31.387,0,0,0-7.5,4.076,30.8,30.8,0,0,0-5.745,5.462c-4.466,5.291-6.6,12.18-8.987,18.574C19.8,232.067,14.78,246.675,9.714,261.261c-1.025,2.952-2.043,5.906-3.082,8.854-1.616,4.583-3.47,9.092-4.882,13.745A32.3,32.3,0,0,0,.075,295.8a25.812,25.812,0,0,0,4.248,11.857c4.643,7.195,11.548,12.471,18.491,17.293,6.575,4.567,13.217,9.014,20.028,13.222,12.54,7.749,25.369,15.206,38.577,21.767.881.438,1.766.868,2.659,1.283a2.473,2.473,0,0,0,3.283-.861c7.393-11.378,14.05-23.205,20.521-35.124a2.442,2.442,0,0,0-.861-3.284c-7.735-4.463-15.2-9.445-22.75-14.209-10.58-6.675-21.144-13.375-31.779-19.961-3.155-1.954-6.287-4.029-9.576-5.755-2.733-1.434-5.162,2.708-2.423,4.145Z"/><path class="b" d="M179.97,176.193a5.092,5.092,0,0,1,3.9,2.457l74.981,19.584c2.024-2.774,4.467-5.747,7.876-6.159a6.4,6.4,0,0,1,7.1,7.3,11.884,11.884,0,0,1-2.534,5.1q-1.6,2.166-3.352,4.216a5.656,5.656,0,0,1,4.448,2.374,7.7,7.7,0,0,1,1.2,5.066,10.749,10.749,0,0,1-.48,2.38,25.384,25.384,0,0,1-3.8,6.719l-3.646,5.138a11.4,11.4,0,0,1-3.581,3.695,4.643,4.643,0,0,1,2.322,2.062,7.143,7.143,0,0,1,.628,3.678,6.735,6.735,0,0,1-2.138,3.983,67.286,67.286,0,0,1-7.08,5.538,6.225,6.225,0,0,1-5.178.664,5.039,5.039,0,0,1-1.705-1.218l-69.008-42.4c-1.795-4.387-5.071-11.1-7.955-16.78-1.937-3.815-1.9-9.6,1.589-11.981A9.028,9.028,0,0,1,179.97,176.193Z"/><path class="b" d="M174.794,249.649c1.9-13.791,10.643-78.063,12.576-92.057a1.985,1.985,0,0,1,2.249-1.7c11.213,1.575,58.717,8.243,70.622,9.916a1.99,1.99,0,0,1,1.7,2.245c-3.688,26.583-9.4,67.73-12.766,91.808a1.991,1.991,0,0,1-2.247,1.7c-12.223-1.7-58.763-8.059-70.43-9.675A1.987,1.987,0,0,1,174.794,249.649Z"/><path class="c" d="M203.237,204.646l-3.231-.46-1.554-.221-.741-.106c-.106-.014-.213-.026-.318-.045-.264-.047-.411-.2.069.086-.326-.192.151.135.165.166-.019-.043-.376-.381-.068-.035s-.038-.231.118.2.032-.04,0-.078c.025.035.057.635.064.245-.011.617-.059.413-.033.231q.059-.4.115-.807.238-1.7.465-3.394l.078-.587c.015-.111-.011-.506.014-.091l-.023.185c.056-.185.042-.174-.04.035-.233.385.052,0,.058-.058,0,.036-.389.463-.122.2-.4.39-.344.243-.175.157q-.575.218-.217.1l.126-.028-.377.059q.288.014-.038-.022c-.3-.146-.086-.013.069.009l.746.107,1.65.235c1.063.152,2.128.34,3.195.461.362.041-.159-.034-.2-.11,0,0,.194.125.219.131l-.291-.213c.126.138.117.121-.025-.051l-.112-.142q.181.326-.076-.233a2.1,2.1,0,0,0,.066.247c-.161-.267-.049-.533-.062-.246.038-.816,0-.01-.026.2l-.464,3.3c-.033.239-.065.478-.1.717-.012.084-.036.181-.043.267-.032.442.249-.444.049-.089-.224.4.307-.363.1-.141-.188.2.479-.3.13-.116.547-.284.364-.139.155-.089-.187.041-.082.025.316-.046a1.6,1.6,0,0,1-.268-.016,2.408,2.408,0,0,0-2.4,2.4,2.466,2.466,0,0,0,2.4,2.4,4.04,4.04,0,0,0,4.116-2.9,12.35,12.35,0,0,0,.242-1.572l.27-1.918q.114-.811.228-1.624a4.313,4.313,0,0,0-.484-2.963,4.107,4.107,0,0,0-2.205-1.742,10.923,10.923,0,0,0-1.942-.324l-3.983-.569a4.888,4.888,0,0,0-2.493.079,4.086,4.086,0,0,0-2.244,1.885,6.8,6.8,0,0,0-.571,2.419c-.013.1-.027.2-.04.3.1-.729.022-.168,0-.02q-.065.478-.131.957-.117.852-.238,1.7a5.734,5.734,0,0,0-.007,2.609,4.079,4.079,0,0,0,1.92,2.365,6.734,6.734,0,0,0,2.39.584q2.266.323,4.532.645a2.638,2.638,0,0,0,1.849-.242,2.443,2.443,0,0,0,1.1-1.434C205.172,206.465,204.566,204.835,203.237,204.646Z"/><path class="c" d="M260.928,199.448c1.614-2.209,3.977-5.418,7.111-4.987a4.012,4.012,0,0,1,3.278,2.838c.5,1.681-.246,3.212-1.153,4.6a67.079,67.079,0,0,1-16.78,17,2.47,2.47,0,0,0-.861,3.283,2.419,2.419,0,0,0,3.284.861,80.622,80.622,0,0,0,17.16-16.846c2.4-3.193,4.3-6.9,2.716-10.919a8.851,8.851,0,0,0-9.6-5.521c-4.165.633-6.966,4.063-9.3,7.263a2.417,2.417,0,0,0,.861,3.283,2.455,2.455,0,0,0,3.284-.861Z"/><path class="c" d="M260.864,236.139a5.954,5.954,0,0,1,.859.469c-.256-.173.284.253.293.261.194.218.222.241.086.071a2.669,2.669,0,0,1,.221.4c-.143-.324.132.45.125.426a3.78,3.78,0,0,1,.219,1.51c0,.64.1-.218-.045.379-.024.1-.258.885-.165.644a4.25,4.25,0,0,1-1.44,1.942c-.47.414-.95.816-1.43,1.218q-.974.818-1.964,1.615-.495.4-1,.787c.476-.37-.164.121-.252.186-.138.1-.278.207-.418.308a10.057,10.057,0,0,1-1.889,1.152c.057-.025-.457.163-.5.177-.18.057-.361.106-.545.149-.3.054-.367.07-.187.047a3.658,3.658,0,0,1-.83.01c.313.034-.983-.322-.239,0a2.48,2.48,0,0,0-3.284.861,2.416,2.416,0,0,0,.861,3.283,8.691,8.691,0,0,0,7.857-.742,31.528,31.528,0,0,0,3.893-2.882q1.647-1.326,3.248-2.711a9.067,9.067,0,0,0,3.118-6.289,7.6,7.6,0,0,0-4.173-7.41,2.47,2.47,0,0,0-3.284.861,2.418,2.418,0,0,0,.861,3.283Z"/><path class="c" d="M268.275,211.1c2.71.322,3.254,3.646,2.776,5.8-.7,3.129-2.854,5.745-4.667,8.305-1.012,1.429-2.013,2.866-3.037,4.285a7.078,7.078,0,0,1-2.627,2.582c-2.516,1.053-4.488-1.163-4.97-3.429-.644-3.02-5.272-1.742-4.629,1.276.911,4.276,4.718,7.624,9.2,7.126,4.88-.543,7.376-5.414,9.931-9.022,2.643-3.731,5.569-7.539,5.763-12.305a8.746,8.746,0,0,0-7.736-9.417,2.414,2.414,0,0,0-2.4,2.4,2.458,2.458,0,0,0,2.4,2.4Z"/><path class="c" d="M256.11,227.335c.042-.108.085-.215.128-.323.116-.293.04-.015-.044.1a3.648,3.648,0,0,0,.274-.61q.291-.624.616-1.232c.4-.76.847-1.5,1.305-2.229.935-1.488,1.911-2.952,2.859-4.433a2.421,2.421,0,0,0-.861-3.283,2.453,2.453,0,0,0-3.284.861c-2.054,3.211-4.219,6.3-5.622,9.873a2.409,2.409,0,0,0,.242,1.849,2.443,2.443,0,0,0,1.434,1.1,2.47,2.47,0,0,0,2.953-1.676Z"/><path class="c" d="M185.942,177.438c-3.195-5.906-12.956-4.34-16.124.7A12.473,12.473,0,0,0,168.572,187c.627,3.37,2.67,6.462,4.162,9.5,1.7,3.461,3.4,6.938,4.866,10.505a2.477,2.477,0,0,0,2.952,1.676,2.414,2.414,0,0,0,1.676-2.952c-1.43-3.474-3.027-6.876-4.668-10.255q-1.354-2.791-2.752-5.561a14.68,14.68,0,0,1-1.608-4.192c-.4-2.352-.04-5.18,2.18-6.429a6.588,6.588,0,0,1,4.172-.76,4.646,4.646,0,0,1,1.419.481,1.673,1.673,0,0,1,.826.845c1.471,2.718,5.617.3,4.145-2.423Z"/><path class="c" d="M177.108,250.287q1.665-12.065,3.3-24.133,2.391-17.524,4.78-35.052,1.958-14.357,3.922-28.714c.186-1.355.478-2.739.565-4.1.036-.564.183-.11-.066-.1-.184.008-.684-.03-.329.068a8.456,8.456,0,0,0,1.067.15l2.326.327,13.87,1.947,35.616,5,13.946,1.958,2.423.34c.316.045.631.1.948.133.531.06.292.23.174-.057-.238-.579-.1-.084-.161.331l-1.4,10.073q-3.239,23.345-6.485,46.688-1.543,11.1-3.091,22.2-.663,4.76-1.328,9.518c-.1.736-.248,1.478-.31,2.218,0,.047-.108.448-.091.462,5.049,4,.042-.265.145-.269.281-.013.671.013.229-.079-.765-.159-1.566-.217-2.34-.324q-15.873-2.19-31.748-4.36-16.124-2.211-32.246-4.425l-2.325-.321c-.35-.048-.7-.09-1.05-.145a3.7,3.7,0,0,0-.636-.114c.325-.324.317,1.186.377.141.176-3.086-4.625-3.076-4.8,0a4.418,4.418,0,0,0,3.527,4.566c.736.148,1.5.208,2.247.31l6.109.841,16.9,2.319q18.059,2.477,36.116,4.955l6.43.886q1.152.159,2.305.318c2.24.309,4.439-.433,5.277-2.729a22.562,22.562,0,0,0,.731-4.5q.357-2.565.716-5.129l1.509-10.829q3.374-24.221,6.734-48.443,1.542-11.115,3.085-22.23c.311-2.244.438-4.515-1.746-5.9a7.277,7.277,0,0,0-3.042-.812l-5.773-.811-35.086-4.926L201.1,155.1l-6.609-.928a27.357,27.357,0,0,0-5.511-.668,4.386,4.386,0,0,0-3.962,3.72c-.1.656-.182,1.316-.272,1.974q-.359,2.6-.714,5.207-.986,7.194-1.966,14.388-2.48,18.161-4.954,36.32-2.03,14.89-4.067,29.779-.282,2.058-.565,4.114a2.482,2.482,0,0,0,1.676,2.952A2.417,2.417,0,0,0,177.108,250.287Z"/><path class="c" d="M241.072,210.037l-3.232-.46-1.553-.221-.741-.1c-.106-.015-.214-.026-.319-.045-.264-.047-.411-.2.07.086-.327-.192.151.134.165.165-.02-.043-.376-.381-.069-.035s-.038-.231.119.2.031-.04,0-.078c.024.035.056.636.063.245-.011.617-.058.414-.032.231.038-.269.077-.537.114-.806q.24-1.7.465-3.4.04-.294.079-.586c.014-.112-.012-.506.013-.092l-.022.185q.083-.278-.04.035c-.234.385.052,0,.057-.058,0,.036-.389.464-.122.2-.4.39-.343.244-.174.157q-.576.217-.218.1l.126-.028-.376.059q.286.013-.039-.022c-.3-.146-.086-.013.07.01l.746.106,1.649.236c1.063.152,2.129.339,3.2.461.361.041-.159-.035-.2-.111,0,0,.194.125.22.131l-.292-.213q.189.207-.024-.051l-.112-.142q.182.325-.076-.233a2.118,2.118,0,0,0,.065.247c-.161-.267-.048-.533-.061-.246.037-.816,0-.01-.027.2l-.463,3.3c-.034.239-.066.478-.1.716-.013.085-.037.181-.043.268-.032.441.249-.445.049-.09-.224.4.307-.362.1-.14-.188.2.478-.3.129-.117.548-.284.364-.139.156-.088q-.282.06.315-.046a1.59,1.59,0,0,1-.267-.017,2.408,2.408,0,0,0-2.4,2.4,2.465,2.465,0,0,0,2.4,2.4,4.04,4.04,0,0,0,4.115-2.9,12.337,12.337,0,0,0,.243-1.571l.269-1.918q.114-.813.228-1.624a4.315,4.315,0,0,0-.484-2.964,4.1,4.1,0,0,0-2.205-1.742,10.923,10.923,0,0,0-1.942-.324l-3.982-.569a4.888,4.888,0,0,0-2.493.079,4.081,4.081,0,0,0-2.244,1.886,6.8,6.8,0,0,0-.572,2.418c-.013.1-.026.2-.04.3.1-.729.023-.168,0-.02-.044.319-.087.638-.131.957q-.119.852-.239,1.7a5.762,5.762,0,0,0-.007,2.609,4.081,4.081,0,0,0,1.921,2.364,6.723,6.723,0,0,0,2.39.584l4.531.646a2.646,2.646,0,0,0,1.85-.242,2.449,2.449,0,0,0,1.1-1.435C243.006,211.856,242.4,210.226,241.072,210.037Z"/><path class="c" d="M222.327,207.4l-3.231-.46-1.553-.221-.741-.105c-.106-.015-.214-.027-.319-.045-.264-.048-.411-.2.069.085-.326-.192.151.135.166.166-.02-.043-.376-.381-.069-.035s-.038-.231.119.2.031-.04,0-.078c.024.035.056.635.063.245-.011.617-.059.413-.032.231.038-.269.077-.538.114-.807q.24-1.7.465-3.394c.027-.2.053-.391.078-.587.015-.111-.011-.5.014-.091l-.022.185c.055-.185.042-.174-.04.035-.234.385.052.005.057-.058,0,.036-.389.463-.122.2-.4.39-.343.243-.174.157q-.576.218-.218.1l.126-.028-.376.059q.287.014-.039-.022c-.3-.146-.086-.013.07.009l.745.107,1.65.235c1.063.152,2.129.34,3.2.461.361.041-.159-.034-.2-.11,0,0,.194.125.22.131l-.292-.213q.189.207-.024-.051l-.112-.142q.181.326-.076-.233a2.118,2.118,0,0,0,.065.247c-.161-.267-.048-.533-.062-.246.038-.816,0-.01-.026.2l-.464,3.3c-.033.239-.065.478-.1.717-.013.084-.037.181-.043.267-.033.442.249-.444.049-.089-.224.4.307-.363.1-.141-.188.2.478-.3.129-.116.548-.284.364-.139.156-.089-.188.041-.083.025.315-.045a1.723,1.723,0,0,1-.268-.017,2.408,2.408,0,0,0-2.4,2.4,2.467,2.467,0,0,0,2.4,2.4,4.04,4.04,0,0,0,4.116-2.9,12.352,12.352,0,0,0,.243-1.572l.269-1.918q.114-.812.228-1.624a4.313,4.313,0,0,0-.484-2.963,4.1,4.1,0,0,0-2.205-1.742,10.923,10.923,0,0,0-1.942-.324l-3.982-.569a4.888,4.888,0,0,0-2.493.079,4.079,4.079,0,0,0-2.244,1.885,6.8,6.8,0,0,0-.572,2.419c-.013.1-.026.2-.04.3.1-.729.023-.168,0-.02-.044.319-.087.638-.131.957q-.119.852-.239,1.7a5.762,5.762,0,0,0-.007,2.609,4.08,4.08,0,0,0,1.921,2.365,6.723,6.723,0,0,0,2.39.584l4.531.645a2.641,2.641,0,0,0,1.85-.242,2.447,2.447,0,0,0,1.1-1.434C224.262,209.222,223.657,207.592,222.327,207.4Z"/><path class="c" d="M200.933,221.728l-3.231-.46-1.554-.221-.741-.1c-.105-.015-.213-.026-.318-.045-.264-.047-.411-.2.069.086-.326-.192.151.134.166.165-.02-.043-.377-.381-.069-.035s-.038-.231.118.2.032-.04.006-.077c.024.034.056.635.063.244-.011.617-.059.414-.032.231l.114-.806q.24-1.7.465-3.395l.078-.586c.015-.112-.011-.506.014-.092l-.023.185c.056-.185.042-.173-.04.035-.233.385.052,0,.058-.058,0,.036-.389.464-.122.2-.4.389-.344.243-.174.156q-.576.217-.218.1l.126-.028-.377.059q.288.013-.038-.022c-.3-.146-.086-.013.07.01l.745.106,1.65.236c1.063.152,2.129.339,3.2.461.361.041-.16-.035-.2-.111,0,0,.194.125.219.131l-.291-.213q.189.207-.025-.051l-.112-.142q.182.326-.075-.233a1.935,1.935,0,0,0,.065.247c-.161-.266-.049-.532-.062-.246.038-.815,0-.01-.026.2l-.464,3.3c-.033.239-.065.478-.1.716-.013.085-.037.181-.044.268-.032.441.249-.445.049-.09-.223.4.308-.362.1-.14-.188.2.479-.3.13-.117.547-.284.364-.139.156-.088q-.282.06.315-.046a1.715,1.715,0,0,1-.268-.016,2.407,2.407,0,0,0-2.4,2.4,2.467,2.467,0,0,0,2.4,2.4,4.042,4.042,0,0,0,4.116-2.9,12.335,12.335,0,0,0,.242-1.571l.27-1.918q.114-.813.228-1.624a4.315,4.315,0,0,0-.484-2.964,4.107,4.107,0,0,0-2.205-1.742,10.923,10.923,0,0,0-1.942-.324l-3.982-.569a4.892,4.892,0,0,0-2.494.079A4.082,4.082,0,0,0,191.8,214.8a6.776,6.776,0,0,0-.572,2.418c-.013.1-.027.2-.04.3.1-.729.023-.168,0-.02q-.065.479-.131.957-.117.852-.238,1.7a5.762,5.762,0,0,0-.007,2.609,4.078,4.078,0,0,0,1.921,2.364,6.723,6.723,0,0,0,2.39.584l4.531.646a2.646,2.646,0,0,0,1.85-.242,2.451,2.451,0,0,0,1.1-1.434C202.868,223.547,202.263,221.917,200.933,221.728Z"/><path class="c" d="M238.683,227.034l-3.232-.461-1.553-.221-.741-.1c-.106-.015-.213-.026-.318-.045-.264-.047-.412-.2.069.086-.326-.192.151.134.165.166-.02-.044-.376-.381-.069-.035s-.038-.232.119.2.031-.041,0-.078c.024.034.057.635.064.245-.011.617-.059.413-.033.231q.059-.4.115-.807.238-1.7.465-3.395l.078-.586c.015-.111-.011-.506.014-.091l-.023.185c.055-.186.042-.174-.04.034-.233.386.052.006.057-.058,0,.036-.388.464-.121.2-.4.389-.344.243-.175.157q-.575.216-.217.1l.126-.029-.377.059c.191.01.179,0-.038-.022-.3-.146-.086-.012.069.01l.746.106,1.649.236c1.064.152,2.129.34,3.2.461.362.041-.159-.035-.2-.111,0,0,.194.126.22.132l-.291-.213q.188.206-.025-.051l-.112-.143q.182.327-.076-.233a1.943,1.943,0,0,0,.066.248c-.161-.267-.049-.533-.062-.246.037-.816,0-.01-.026.2l-.464,3.3c-.034.239-.066.478-.1.717-.012.084-.037.181-.043.267-.032.441.249-.444.049-.089-.224.4.307-.363.1-.141-.188.2.479-.3.129-.116.548-.285.364-.14.156-.089q-.281.06.316-.046a1.6,1.6,0,0,1-.268-.016,2.407,2.407,0,0,0-2.4,2.4,2.466,2.466,0,0,0,2.4,2.4,4.04,4.04,0,0,0,4.115-2.9,12.352,12.352,0,0,0,.243-1.572l.269-1.918q.115-.812.229-1.624a4.311,4.311,0,0,0-.484-2.963,4.106,4.106,0,0,0-2.206-1.742,10.818,10.818,0,0,0-1.942-.324l-3.982-.569a4.888,4.888,0,0,0-2.493.079,4.079,4.079,0,0,0-2.244,1.885,6.8,6.8,0,0,0-.571,2.418c-.014.1-.027.2-.04.3.1-.729.022-.167,0-.019q-.065.478-.131.957-.117.852-.239,1.7a5.748,5.748,0,0,0-.006,2.609,4.082,4.082,0,0,0,1.92,2.365,6.723,6.723,0,0,0,2.39.584q2.267.321,4.532.645a2.638,2.638,0,0,0,1.849-.242,2.443,2.443,0,0,0,1.1-1.434C240.617,228.852,240.012,227.222,238.683,227.034Z"/><path class="c" d="M219.939,224.4l-3.232-.46-1.553-.221-.741-.1c-.106-.015-.214-.026-.318-.045-.264-.047-.412-.2.069.086-.326-.192.151.134.165.165-.02-.043-.376-.381-.069-.035s-.038-.231.119.2.031-.04,0-.077c.024.034.057.635.064.245-.011.617-.059.413-.033.23q.059-.4.115-.806.238-1.7.465-3.4l.078-.586c.014-.111-.011-.506.014-.092l-.023.186c.055-.186.042-.174-.04.034-.233.385.052,0,.057-.058,0,.036-.388.464-.121.2-.4.389-.344.243-.175.156q-.575.217-.217.1l.126-.029-.377.059c.191.009.179,0-.038-.022-.3-.146-.086-.013.069.01l.746.106,1.649.236c1.064.152,2.129.339,3.2.461.362.041-.159-.035-.2-.111,0,0,.194.126.22.132l-.291-.214q.188.207-.025-.051l-.112-.142q.181.327-.076-.233a1.924,1.924,0,0,0,.066.247c-.161-.266-.049-.532-.062-.246.037-.815,0-.01-.027.2l-.463,3.3c-.034.239-.066.478-.1.717-.012.084-.037.181-.043.267-.032.441.249-.445.049-.09-.224.4.307-.362.1-.14-.188.2.479-.3.129-.117.548-.284.364-.139.156-.088q-.28.06.316-.046a1.715,1.715,0,0,1-.268-.016,2.407,2.407,0,0,0-2.4,2.4,2.466,2.466,0,0,0,2.4,2.4,4.041,4.041,0,0,0,4.115-2.9,12.337,12.337,0,0,0,.243-1.571l.269-1.918c.076-.542.154-1.083.229-1.624a4.315,4.315,0,0,0-.484-2.964,4.1,4.1,0,0,0-2.206-1.741,10.82,10.82,0,0,0-1.942-.325l-3.982-.568a4.877,4.877,0,0,0-2.493.079,4.075,4.075,0,0,0-2.244,1.885,6.8,6.8,0,0,0-.571,2.418c-.014.1-.027.2-.04.3.1-.729.022-.168,0-.02q-.065.479-.131.957-.117.852-.239,1.7a5.762,5.762,0,0,0-.007,2.609,4.082,4.082,0,0,0,1.921,2.364,6.723,6.723,0,0,0,2.39.584l4.532.646a2.638,2.638,0,0,0,1.849-.242,2.443,2.443,0,0,0,1.1-1.434C221.873,226.218,221.268,224.588,219.939,224.4Z"/><path class="c" d="M198.545,238.725l-3.232-.461-1.553-.221-.741-.105c-.106-.015-.214-.026-.319-.045-.264-.047-.411-.2.07.086-.327-.192.151.134.165.166-.02-.044-.376-.381-.069-.035s-.038-.232.119.2.031-.04,0-.078c.024.034.056.635.063.245-.011.617-.058.413-.032.231q.059-.4.115-.807.238-1.7.464-3.4.041-.292.079-.586c.014-.111-.012-.506.013-.091l-.022.185c.055-.186.042-.174-.04.034-.234.386.052.006.057-.058,0,.036-.389.464-.122.2-.4.389-.343.243-.174.157q-.576.216-.218.1l.127-.029-.377.059c.191.01.178,0-.038-.022-.3-.146-.087-.012.069.01l.746.106,1.649.236c1.064.152,2.129.34,3.2.461.361.041-.159-.035-.2-.111,0,0,.194.126.22.132l-.291-.213q.188.206-.025-.051l-.112-.143q.181.327-.076-.233a1.943,1.943,0,0,0,.066.248c-.162-.267-.049-.533-.062-.246.037-.816,0-.01-.027.2l-.463,3.3c-.034.239-.066.478-.1.717-.013.084-.037.181-.043.267-.032.441.249-.444.049-.089-.224.4.307-.363.1-.141-.188.2.478-.3.129-.116.548-.285.364-.14.156-.089q-.282.06.315-.046a1.589,1.589,0,0,1-.267-.016,2.407,2.407,0,0,0-2.4,2.4,2.466,2.466,0,0,0,2.4,2.4,4.041,4.041,0,0,0,4.115-2.9,12.352,12.352,0,0,0,.243-1.572l.269-1.918q.114-.811.228-1.624a4.311,4.311,0,0,0-.484-2.963,4.1,4.1,0,0,0-2.2-1.742,10.833,10.833,0,0,0-1.942-.324l-3.982-.569a4.888,4.888,0,0,0-2.493.079,4.079,4.079,0,0,0-2.244,1.885,6.8,6.8,0,0,0-.572,2.418c-.013.1-.026.2-.04.3.1-.729.023-.167,0-.019-.044.319-.087.638-.131.957q-.119.852-.239,1.7a5.762,5.762,0,0,0-.007,2.609,4.083,4.083,0,0,0,1.921,2.365,6.723,6.723,0,0,0,2.39.584q2.265.323,4.532.645a2.638,2.638,0,0,0,1.849-.242,2.443,2.443,0,0,0,1.1-1.434C200.479,240.543,199.874,238.913,198.545,238.725Z"/><path class="c" d="M236.294,244.03l-3.231-.46-1.554-.221-.741-.1c-.1-.015-.213-.027-.318-.045-.264-.048-.411-.2.069.086-.326-.193.151.134.165.165-.019-.043-.376-.381-.068-.035s-.038-.231.118.2.032-.04,0-.078c.025.035.057.635.064.245-.011.617-.059.414-.033.231q.058-.4.115-.807.24-1.7.465-3.394l.078-.587c.015-.111-.011-.5.014-.091l-.023.185c.056-.185.042-.174-.04.035-.233.385.052,0,.058-.058,0,.036-.389.463-.122.2-.4.39-.344.244-.175.157q-.574.217-.217.1l.126-.028-.377.059q.288.013-.038-.022c-.3-.146-.086-.013.07.009l.745.107,1.65.235c1.063.152,2.129.34,3.2.461.361.042-.16-.034-.2-.11,0,0,.194.125.219.131l-.291-.213c.126.138.117.121-.025-.051l-.112-.142q.181.325-.076-.233a2.1,2.1,0,0,0,.066.247c-.161-.267-.049-.533-.062-.246.038-.816,0-.01-.026.2l-.464,3.3c-.033.239-.065.479-.1.717-.012.085-.036.181-.043.267-.032.442.249-.444.049-.089-.223.4.307-.363.1-.141-.188.2.479-.3.13-.116.547-.284.364-.139.156-.089q-.282.061.315-.045a1.715,1.715,0,0,1-.268-.017,2.408,2.408,0,0,0-2.4,2.4,2.466,2.466,0,0,0,2.4,2.4,4.04,4.04,0,0,0,4.116-2.9,12.35,12.35,0,0,0,.242-1.572l.27-1.918q.114-.811.228-1.623a4.315,4.315,0,0,0-.484-2.964,4.107,4.107,0,0,0-2.2-1.742,10.923,10.923,0,0,0-1.942-.324l-3.982-.569a4.892,4.892,0,0,0-2.494.079,4.086,4.086,0,0,0-2.244,1.885,6.8,6.8,0,0,0-.571,2.419c-.013.1-.027.2-.04.3.1-.729.022-.168,0-.02q-.065.479-.131.957-.117.852-.238,1.7a5.762,5.762,0,0,0-.007,2.609,4.079,4.079,0,0,0,1.92,2.365,6.734,6.734,0,0,0,2.39.584l4.532.646a2.648,2.648,0,0,0,1.849-.242,2.448,2.448,0,0,0,1.1-1.435C238.229,245.849,237.623,244.219,236.294,244.03Z"/><path class="c" d="M217.55,241.4l-3.231-.461-1.554-.221-.741-.1c-.106-.015-.213-.026-.318-.045-.264-.047-.411-.2.069.086-.326-.192.151.134.165.166-.019-.043-.376-.381-.068-.035s-.038-.232.118.2.032-.04,0-.078c.025.034.057.635.064.245-.011.617-.059.413-.033.231q.058-.4.115-.807.239-1.7.465-3.395l.078-.586c.015-.111-.011-.506.014-.091l-.023.185c.056-.185.042-.174-.04.034-.233.386.052.006.058-.058,0,.037-.389.464-.122.2-.4.389-.344.243-.175.157q-.574.216-.217.1l.126-.029-.377.06q.288.014-.038-.023c-.3-.146-.086-.012.07.01l.745.106,1.65.236c1.063.152,2.128.34,3.2.461.362.041-.159-.035-.2-.11,0,0,.194.125.219.131l-.291-.213c.126.137.117.12-.025-.051l-.112-.143q.181.327-.076-.233a2.125,2.125,0,0,0,.066.248c-.161-.267-.049-.533-.062-.246.038-.816,0-.01-.026.2l-.464,3.3c-.033.239-.065.478-.1.717-.012.084-.036.181-.043.267-.032.441.249-.444.049-.089-.224.4.307-.363.1-.141-.188.2.479-.3.13-.116.547-.285.364-.14.156-.089q-.282.06.315-.046a1.6,1.6,0,0,1-.268-.016,2.407,2.407,0,0,0-2.4,2.4,2.466,2.466,0,0,0,2.4,2.4,4.041,4.041,0,0,0,4.116-2.9,12.35,12.35,0,0,0,.242-1.572l.27-1.918q.114-.811.228-1.624a4.311,4.311,0,0,0-.484-2.963,4.107,4.107,0,0,0-2.2-1.742,10.833,10.833,0,0,0-1.942-.324l-3.983-.569a4.888,4.888,0,0,0-2.493.079,4.086,4.086,0,0,0-2.244,1.885,6.8,6.8,0,0,0-.571,2.418c-.013.1-.027.2-.04.3.1-.728.022-.167,0-.019q-.065.478-.131.957-.117.852-.238,1.7a5.734,5.734,0,0,0-.007,2.609,4.082,4.082,0,0,0,1.92,2.365,6.734,6.734,0,0,0,2.39.584q2.266.323,4.532.645a2.638,2.638,0,0,0,1.849-.242,2.443,2.443,0,0,0,1.1-1.434C219.485,243.214,218.879,241.584,217.55,241.4Z"/><path class="e" d="M246.013,189.755c-.1.754-.185,1.42-.254,1.944a1.644,1.644,0,0,1-1.864,1.422c-9.274-1.281-37-5-45.146-6.123a1.652,1.652,0,0,1-1.421-1.863c.551-4.01,1.634-12.168,1.906-13.766l12.046,1.588c12.033,1.688,28.381,3.944,34.638,4.823a1.652,1.652,0,0,1,1.415,1.853C247.053,181.781,246.431,186.557,246.013,189.755Z"/><path class="c" d="M244.933,179.633c-.384,3.666-.882,7.315-1.41,10.963-.1.7-.238.417.389.17.419-.166.611.073.282-.006-.112-.026-.239-.033-.354-.049l-1.881-.258-4.206-.573q-11-1.5-22-2.978-5.107-.69-10.215-1.382l-3.921-.532-1.611-.22c-.1-.014-.554-.143-.615-.084-.1.1.235.357.3.47q-.048.748.011.233l.086-.638c.5-3.738.932-7.483,1.422-11.221a2.588,2.588,0,0,0,.094-.71c.141.638-3.2-.048-1.418.865a3.978,3.978,0,0,0,1.123.157l2.734.38q3.079.426,6.158.847c9.539,1.306,19.081,2.585,28.614,3.931a2.483,2.483,0,0,0,2.953-1.676,2.419,2.419,0,0,0-1.677-2.953c-9.412-1.328-18.833-2.592-28.251-3.881q-3.261-.447-6.521-.9c-2-.277-5.013-1.269-6.818-.116-2.043,1.3-1.85,4.48-2.122,6.632-.278,2.2-.549,4.406-.828,6.608-.057.452-.116.9-.174,1.355-.02.155-.04.31-.061.465.087-.659-.039.3-.037.281a4.054,4.054,0,0,0,1.814,3.945c1.178.749,2.8.753,4.154.938q5.067.688,10.135,1.372,12.3,1.664,24.6,3.328,2.664.363,5.327.726c2.3.315,4.856.944,6.412-1.332a7.083,7.083,0,0,0,.929-3.14c.195-1.3.37-2.61.541-3.916.311-2.364.6-4.732.85-7.1a2.415,2.415,0,0,0-2.4-2.4,2.454,2.454,0,0,0-2.4,2.4Z"/><path class="c" d="M149.044,109.933c7.795.226,16.629.01,21.491-7.107,3.638-5.326,4.392-14.669-.77-19.334a8.2,8.2,0,0,0-3.157-1.3q-1.483-.447-2.994-.8a51.663,51.663,0,0,0-6.553-1.058,46.534,46.534,0,0,0-12.868.546c-3.648.658-8.01,1.39-10.11,4.77a14.46,14.46,0,0,0-1.9,8.427,17.853,17.853,0,0,0,5.177,11.552c3.138,2.9,7.491,4.14,11.683,4.3,3.089.12,3.084-4.681,0-4.8-3.2-.125-6.7-1.074-8.908-3.523A13.089,13.089,0,0,1,137,91.765a11.573,11.573,0,0,1,.752-2.81c.685-1.534,1.159-1.728,2.7-2.212a40.5,40.5,0,0,1,12.825-1.827A45.224,45.224,0,0,1,167.429,87.5l-1.059-.617c3.45,3.546,2.646,10.061-.169,13.787-3.884,5.139-11.443,4.626-17.157,4.46C145.954,105.043,145.957,109.843,149.044,109.933Z"/><path class="c" d="M89.347,87.5a44.1,44.1,0,0,1,20.635-2.211,39.884,39.884,0,0,1,5.261,1.127,12.242,12.242,0,0,1,2.577.826c-.031-.017.439.4.493.469a9.093,9.093,0,0,1,1.516,5.6,13.481,13.481,0,0,1-2.959,8.029,11.49,11.49,0,0,1-7.241,3.624,40.456,40.456,0,0,1-9.675.09c-2.895-.268-6.037-1.092-8.214-3.123-3.8-3.546-5.185-11.092-1.334-15.05,2.155-2.216-1.236-5.613-3.394-3.394-4.857,4.993-4.587,13.587-.861,19.2,4.708,7.088,13.441,7.493,21.154,7.256a19.313,19.313,0,0,0,10.514-3.047,16.59,16.59,0,0,0,6.19-9.317,16.161,16.161,0,0,0-.193-9.459,10.461,10.461,0,0,0-2.277-3.971c-1.341-1.361-3.236-1.854-5.02-2.36a47.677,47.677,0,0,0-28.448,1.083,2.461,2.461,0,0,0-1.677,2.953A2.423,2.423,0,0,0,89.347,87.5Z"/><path class="c" d="M124.73,94.54c.48-.24-.569.2-.038.01.167-.061.338-.115.509-.163.362-.1.73-.171,1.1-.236.177-.031.527-.032-.2.022.086-.006.172-.021.258-.03q.329-.036.66-.058c.454-.031.91-.044,1.365-.041q.653,0,1.3.052.335.025.669.063c.175.019.535.1-.181-.029.084.016.17.025.255.038.4.063.8.142,1.191.244.161.042.32.088.479.139.2.066.874.35.04-.011a2.623,2.623,0,0,0,1.849.242,2.446,2.446,0,0,0,1.435-1.1c.547-1.035.369-2.751-.861-3.283a15.713,15.713,0,0,0-6.18-1.152,13.38,13.38,0,0,0-6.077,1.152,2.416,2.416,0,0,0-.861,3.283,2.459,2.459,0,0,0,3.284.861Z"/><path class="c" d="M174.788,91.966c.083-.037.165-.073.248-.108l-.574.242a22.791,22.791,0,0,1,4.527-1.43,2.415,2.415,0,0,0,1.434-1.1,2.4,2.4,0,0,0-.861-3.284,2.676,2.676,0,0,0-1.849-.241,24.55,24.55,0,0,0-5.347,1.779,2.4,2.4,0,0,0-1.1,1.435,2.452,2.452,0,0,0,.242,1.849,2.421,2.421,0,0,0,1.434,1.1l.638.086a2.4,2.4,0,0,0,1.211-.328Z"/><path class="c" d="M83.853,87.821a24.576,24.576,0,0,0-5.348-1.779,2.574,2.574,0,0,0-1.849.241,2.4,2.4,0,0,0-.861,3.284,2.364,2.364,0,0,0,1.434,1.1,22.75,22.75,0,0,1,4.527,1.43l-.573-.242c.083.035.165.071.247.108a1.8,1.8,0,0,0,.892.285,1.823,1.823,0,0,0,.957-.043,2.45,2.45,0,0,0,1.435-1.1,2.423,2.423,0,0,0,.242-1.849,2.335,2.335,0,0,0-1.1-1.435Z"/><path class="c" d="M118.647,130.518a21,21,0,0,0,10.107,2.334c3.6-.023,7.262-.722,10.148-2.971a2.412,2.412,0,0,0,0-3.394,2.461,2.461,0,0,0-3.394,0c.713-.555.1-.092-.079.026q-.309.2-.634.366c-.153.081-.9.391-.294.161-.29.11-.578.222-.873.317a14.885,14.885,0,0,1-5.2.695,15.478,15.478,0,0,1-4.963-.668c-.32-.1-.632-.21-.948-.319-.1-.035-.2-.088-.3-.119.593.173.18.081.021.006-.392-.184-.778-.377-1.161-.579a2.452,2.452,0,0,0-3.283.861,2.426,2.426,0,0,0,.861,3.284Z"/><path class="c" d="M127.653,106.553a48.17,48.17,0,0,1,1.13,5.173l-.085-.638a3.159,3.159,0,0,1,.019.714l.086-.638a1.673,1.673,0,0,1-.079.321l.242-.573a1.258,1.258,0,0,1-.113.207l.375-.486a1.112,1.112,0,0,1-.169.167l.486-.376a3.345,3.345,0,0,1-.41.217l.574-.242a3.042,3.042,0,0,1-.691.2l.638-.086a2.754,2.754,0,0,1-.648,0l.638.086c-.245-.035-.485-.094-.729-.127a2.655,2.655,0,0,0-1.849.242,2.4,2.4,0,0,0-.861,3.284,2.3,2.3,0,0,0,1.434,1.1c.534.072,1.052.208,1.595.232a5.053,5.053,0,0,0,2.322-.548,3.3,3.3,0,0,0,1.843-2.18,5.567,5.567,0,0,0-.024-2.376c-.282-1.667-.667-3.318-1.1-4.953a2.4,2.4,0,0,0-4.628,1.276Z"/><path class="c" d="M100.055,91.97c-.864,2.807-.3,9.265,5.018,9.815,7.03-.042,7.4-7.85,5.038-11.521C108.173,87.258,102.476,86.008,100.055,91.97Z"/><path class="c" d="M156.349,91.97c.864,2.807.3,9.266-5.017,9.815-7.03-.042-7.4-7.85-5.038-11.522C148.231,87.258,153.928,86.008,156.349,91.97Z"/></svg>